<?xml version="1.0" encoding="UTF-8" standalone="no"?>
<svg
   version="1.1"
   width="48"
   height="48"
   id="svg23"
   sodipodi:docname="catppuccin articon.svg"
   xml:space="preserve"
   inkscape:version="1.4.2 (f4327f4, 2025-05-13)"
   xmlns:inkscape="http://www.inkscape.org/namespaces/inkscape"
   xmlns:sodipodi="http://sodipodi.sourceforge.net/DTD/sodipodi-0.dtd"
   xmlns="http://www.w3.org/2000/svg"
   xmlns:svg="http://www.w3.org/2000/svg"><defs
     id="defs23" /><sodipodi:namedview
     id="namedview23"
     pagecolor="#505050"
     bordercolor="#ffffff"
     borderopacity="1"
     inkscape:showpageshadow="0"
     inkscape:pageopacity="0"
     inkscape:pagecheckerboard="1"
     inkscape:deskcolor="#505050"
     showgrid="false"
     inkscape:zoom="9.65"
     inkscape:cx="16.26943"
     inkscape:cy="23.57513"
     inkscape:window-width="1366"
     inkscape:window-height="705"
     inkscape:window-x="-8"
     inkscape:window-y="-8"
     inkscape:window-maximized="1"
     inkscape:current-layer="svg23" /><g
     id="g23"
     transform="translate(-0.99970859,-0.33105193)"><path
       d="m 36.107131,4.4308689 c 0.652823,0.5997478 0.881759,1.658943 1.075752,2.4847521 0.01393,0.05891 0.02785,0.11781 0.04221,0.1785 0.180949,0.8057155 0.247716,1.6103425 0.247197,2.4348735 2e-6,0.03126 5e-6,0.06253 8e-6,0.09474 -9.31e-4,0.7274025 -0.03152,1.4605955 -0.178691,2.1749725 -0.05931,0.30833 -0.05931,0.30833 0.04786,0.585366 0.09247,0.09248 0.188395,0.177163 0.288671,0.261094 0.06648,0.05779 0.132807,0.115765 0.198962,0.173933 0.03286,0.02886 0.0657,0.0577 0.09955,0.08743 0.154251,0.143496 0.288052,0.302612 0.423527,0.463597 0.04544,0.0518 0.09099,0.103517 0.136661,0.155113 0.336444,0.384583 0.64583,0.782906 0.93909,1.201269 0.01939,0.02752 0.03879,0.05503 0.05876,0.08338 0.827853,1.182881 1.456592,2.475167 1.905654,3.845451 0.02052,0.06234 0.02052,0.06234 0.04145,0.125951 1.05269,3.263524 0.629072,6.733972 -0.90947,9.756031 -0.476385,0.89871 -1.096812,1.731442 -1.797974,2.465774 -0.05888,0.06687 -0.117399,0.134063 -0.175394,0.201703 -0.261856,0.301043 -0.548116,0.571014 -0.853586,0.827276 -0.03431,0.02901 -0.03431,0.02901 -0.06932,0.05861 -0.780286,0.655674 -1.638175,1.216087 -2.549909,1.671954 0.02517,0.331398 0.08016,0.646996 0.154932,0.970515 0.08126,0.363396 0.15808,0.726985 0.22509,1.093291 0.0068,0.03664 0.01367,0.07329 0.0207,0.111037 0.143273,0.796231 0.237355,1.601191 0.332656,2.404249 0.01792,0.150921 0.03602,0.301818 0.05416,0.452714 0.01186,0.09921 0.0237,0.198413 0.03554,0.297622 0.0052,0.04349 0.01043,0.08697 0.01581,0.131776 0.08511,0.71906 0.156437,1.437498 0.203621,2.160042 0.0051,0.07637 0.0102,0.152739 0.01533,0.229108 0.01056,0.158061 0.021,0.31613 0.03135,0.474206 0.0132,0.201546 0.02669,0.403071 0.04026,0.604593 0.01054,0.156888 0.02094,0.313784 0.03129,0.470684 0.0049,0.07432 0.0098,0.148649 0.01488,0.22297 0.007,0.103755 0.01374,0.207523 0.02047,0.311291 0.0058,0.08805 0.0058,0.08805 0.01174,0.177886 0.0092,0.199389 0.0082,0.399151 0.0082,0.59876 -7.732782,0 -15.465564,0 -23.432673,0 0,-0.33425 0.0064,-0.645026 0.04622,-0.973439 0.0073,-0.06271 0.0073,-0.06271 0.01472,-0.126682 0.01028,-0.0879 0.0207,-0.175775 0.03126,-0.263638 0.01576,-0.131302 0.03101,-0.262652 0.04619,-0.394021 0.05265,-0.449382 0.112892,-0.896555 0.185615,-1.343134 0.04592,-0.28232 0.08461,-0.564981 0.121531,-0.848632 0.184412,-1.383563 0.464055,-2.749789 0.799756,-4.103975 0.0085,-0.03459 0.01702,-0.06918 0.02579,-0.104817 0.102644,-0.415114 0.219629,-0.821276 0.359027,-1.225598 0.05443,-0.159756 0.104372,-0.320402 0.153059,-0.481992 0.06776,-0.223136 0.142885,-0.440655 0.228013,-0.657728 -0.03871,-0.01116 -0.07742,-0.02231 -0.117296,-0.0338 -0.191737,-0.07013 -0.356926,-0.162783 -0.531663,-0.267294 -0.03462,-0.02059 -0.06926,-0.04119 -0.104929,-0.0624 -0.760888,-0.458135 -1.474196,-0.983601 -2.124745,-1.588499 -0.100498,-0.09281 -0.20308,-0.181549 -0.307671,-0.269668 -0.180649,-0.157102 -0.337979,-0.330955 -0.495854,-0.510653 -0.06787,-0.07708 -0.136725,-0.153314 -0.206819,-0.228378 C 9.496085,29.391328 8.5832355,27.33244 8.1843329,25.2034 c -0.00741,-0.03922 -0.014817,-0.07845 -0.022449,-0.118849 -0.020485,-0.110335 -0.040208,-0.220763 -0.059401,-0.33133 -0.00812,-0.04638 -0.00812,-0.04638 -0.016409,-0.09371 -0.1025593,-0.630523 -0.1000944,-1.268814 -0.1004893,-1.905792 -4.67e-5,-0.06882 -4.67e-5,-0.06882 -9.35e-5,-0.139021 6.875e-4,-0.630911 0.013039,-1.249076 0.1291061,-1.871093 0.025241,-0.135934 0.047394,-0.272219 0.069586,-0.408682 0.2865273,-1.687171 0.8961748,-3.27661 1.7307395,-4.766522 0.029031,-0.05187 0.029031,-0.05187 0.058647,-0.104802 0.2076113,-0.366832 0.4346153,-0.705119 0.7059623,-1.027953 0.103721,-0.174583 0.102634,-0.254686 0.07728,-0.457487 -0.04133,-0.14927 -0.08785,-0.296234 -0.13561,-0.443575 -0.0847,-0.270599 -0.147073,-0.545696 -0.209331,-0.822184 -0.0103,-0.04547 -0.0103,-0.04547 -0.0208,-0.09186 -0.170676,-0.758608 -0.297423,-1.525058 -0.4153106,-2.293425 -0.013245,-0.08541 -0.027098,-0.170717 -0.040991,-0.25602 C 9.827036,9.3799135 9.8119062,8.6815365 9.8101439,7.9830815 c -4.678e-4,-0.10864 -0.00192,-0.217241 -0.00338,-0.325872 -0.00511,-0.7271985 0.026241,-1.607076 0.5057201,-2.1944377 0.461654,-0.3577818 1.001543,-0.3264728 1.562082,-0.262155 2.258279,0.3234677 4.684171,1.2702759 6.264703,2.9782077 0.0401,0.04328 0.08019,0.08658 0.121498,0.13118 0.0337,0.03889 0.06741,0.07778 0.10213,0.117843 0.109073,0.09285 0.109073,0.09285 0.261083,0.07473 0.206489,-0.05056 0.409674,-0.10773 0.613149,-0.169182 0.765394,-0.224252 1.545341,-0.429107 2.339868,-0.513942 0.129072,-0.01154 0.129072,-0.01154 0.264736,-0.06194 0.120818,-0.01703 0.241329,-0.03262 0.362481,-0.04678 0.06504,-0.0077 0.130088,-0.01557 0.195127,-0.02338 0.04826,-0.0058 0.04826,-0.0058 0.09749,-0.01161 0.08498,-0.01073 0.169713,-0.02348 0.254389,-0.03644 0.71299,-0.0948 1.446132,-0.07461 2.164141,-0.07712 0.09126,-3.27e-4 0.18251,-8.42e-4 0.273763,-0.0015 0.621116,-0.0041 1.227619,0.02965 1.844274,0.103285 0.0794,0.0088 0.0794,0.0088 0.160401,0.01783 1.469922,0.165918 1.469922,0.165918 1.850787,0.356349 0.158265,0.02634 0.158265,0.02634 0.327403,0 0.09309,-0.09074 0.152467,-0.162598 0.222165,-0.268937 0.0401,-0.05637 0.08042,-0.112579 0.12095,-0.168635 0.02049,-0.0286 0.04097,-0.0572 0.06208,-0.08667 0.153714,-0.20598 0.333618,-0.3903045 0.510974,-0.5758535 0.0438,-0.04589 0.08735,-0.09202 0.130631,-0.138397 0.783673,-0.8383883 1.753127,-1.4597442 2.788495,-1.9419915 0.03112,-0.014531 0.06224,-0.029061 0.0943,-0.044031 0.442633,-0.204671 0.889296,-0.3742586 1.355628,-0.5172302 0.0354,-0.011576 0.07078,-0.023152 0.107247,-0.035079 0.476123,-0.1413646 0.927328,-0.090047 1.342679,0.1695477 z"
       fill="#33334a"
       id="path2"
       style="display:inline;fill:none;stroke:#000000;stroke-width:1;stroke-dasharray:none;stroke-opacity:1" /><path
       d="m 25.80893,34.021341 c 1.017364,-0.0138 2.31864,0.659941 3.096258,1.279282 0.08804,0.06002 0.08804,0.06002 0.183067,0.05042 0.136198,-0.06334 0.230905,-0.154692 0.342202,-0.255418 0.49829,-0.432093 1.164618,-0.842236 1.835792,-0.891588 0.163702,0.02631 0.163702,0.02631 0.259804,0.123873 0.102858,0.154079 0.157134,0.296191 0.213761,0.472468 0.01893,0.05758 0.03786,0.115157 0.05737,0.17448 0.132115,0.452627 0.164326,0.880009 0.164797,1.35145 0.0011,0.05972 0.0023,0.119437 0.0035,0.180966 0.0012,0.409391 -0.0178,0.882975 -0.273253,1.224529 -0.119258,0.08441 -0.2329,0.05396 -0.370772,0.03237 -0.742362,-0.153667 -1.458388,-0.4992 -2.08975,-0.914607 -0.137485,0.133318 -0.266662,0.270004 -0.391714,0.415099 -0.05644,0.06438 -0.112952,0.128694 -0.169548,0.192934 -0.02333,0.02707 -0.04667,0.05414 -0.07071,0.08203 -0.392455,0.426064 -0.933732,0.70733 -1.472764,0.900173 -0.07081,0.02541 -0.07081,0.02541 -0.143056,0.05134 -0.122103,0.03746 -0.223979,0.06014 -0.350971,0.06559 -0.03382,0.0024 -0.06765,0.0049 -0.102496,0.0073 -0.209148,-0.06111 -0.314981,-0.272354 -0.423504,-0.449082 -0.165093,-0.322271 -0.292753,-0.643789 -0.397742,-0.990613 -0.01133,-0.03732 -0.02266,-0.07466 -0.03434,-0.113115 -0.147863,-0.513477 -0.201418,-1.012058 -0.199671,-1.546142 1.4e-4,-0.09492 -9.58e-4,-0.189781 -0.0021,-0.284696 -5.28e-4,-1.072431 -5.28e-4,-1.072431 0.335899,-1.159064 z"
       fill="#f17d9e"
       id="path11"
       style="fill:none;stroke:#000000;stroke-width:1;stroke-dasharray:none;stroke-opacity:1" /><path
       d="m 24.975442,15.615175 c 0.04227,0.03353 0.08453,0.06704 0.128074,0.101582 0.621121,0.523604 1.261178,1.429283 1.336469,2.257471 -0.01462,0.166624 -0.01462,0.166624 -0.08477,0.304016 -0.131226,0.108262 -0.221078,0.136392 -0.391714,0.124787 -0.158765,-0.04523 -0.251718,-0.143496 -0.368877,-0.256332 -0.85734,-0.813951 -1.922747,-1.210352 -3.09443,-1.186835 -1.008567,0.038 -1.892784,0.441303 -2.622874,1.134217 -0.113622,0.133422 -0.223393,0.270281 -0.324845,0.413204 -0.08223,0.107432 -0.149461,0.186668 -0.285233,0.214241 -0.144026,0.0027 -0.249648,0.0011 -0.369207,-0.08373 -0.148084,-0.226482 -0.121123,-0.46859 -0.09647,-0.73081 0.228356,-1.006998 0.833485,-1.938173 1.683785,-2.525677 0.0363,-0.02526 0.07259,-0.05052 0.109986,-0.07656 1.335353,-0.863412 3.171522,-0.682164 4.380106,0.310411 z"
       fill="#cbcaec"
       id="path12"
       style="fill:none;stroke:#000000;stroke-width:1;stroke-dasharray:none;stroke-opacity:1" /><path
       d="m 35.271268,15.014998 c 0.128955,0.101331 0.249203,0.206674 0.368145,0.319546 0.03636,0.03443 0.07271,0.06885 0.11017,0.104323 0.339391,0.348737 0.77912,0.934764 0.793111,1.436223 0.0026,0.06141 0.0026,0.06141 0.0053,0.124056 -0.01991,0.112727 -0.01991,0.112727 -0.09683,0.197683 -0.147344,0.07404 -0.227244,0.08147 -0.390801,0.05536 -0.110468,-0.0756 -0.204506,-0.148972 -0.304016,-0.236783 -0.815151,-0.677027 -1.786228,-0.911861 -2.829694,-0.838968 -0.941002,0.115625 -1.752343,0.636914 -2.344311,1.361178 -0.105464,0.123618 -0.172337,0.179673 -0.330086,0.225409 -0.131911,0.0037 -0.131911,0.0037 -0.240071,-0.05481 -0.141691,-0.146939 -0.144476,-0.315623 -0.141595,-0.51321 0.08604,-0.703179 0.503808,-1.372878 0.998103,-1.860459 0.03214,-0.03261 0.06427,-0.06524 0.09738,-0.09884 1.20496,-1.151307 2.9756,-1.141961 4.305198,-0.220704 z"
       fill="#cbcaec"
       id="path13"
       style="fill:none;stroke:#000000;stroke-width:1;stroke-dasharray:none;stroke-opacity:1" /><path
       d="m 32.69279,22.818033 c 0.181241,0.04093 0.181241,0.04093 0.233859,0.09354 0.07355,0.550573 -0.143783,1.049611 -0.470642,1.483544 -0.293319,0.345358 -0.654692,0.672788 -1.122911,0.725671 -0.348887,0.02131 -0.678341,0.01583 -1.013976,-0.08694 -0.173663,-0.0396 -0.26202,-0.01811 -0.409069,0.07381 -0.144698,0.100773 -0.282135,0.210178 -0.41944,0.320712 -0.376924,0.291979 -0.854933,0.409354 -1.322993,0.40352 -0.04088,-4.2e-4 -0.08176,-8.46e-4 -0.123873,-0.0013 -0.781693,-0.02075 -1.411287,-0.394828 -1.945779,-0.954622 -0.151462,-0.184075 -0.267344,-0.341221 -0.30694,-0.578801 0.02631,-0.122776 0.02631,-0.122776 0.07601,-0.213396 0.14634,-0.08025 0.258056,-0.03685 0.418023,-0.0029 0.113607,0.05712 0.217475,0.114076 0.324479,0.18124 0.364793,0.225569 0.679175,0.359685 1.113754,0.353712 0.05507,-5.81e-4 0.05507,-5.81e-4 0.111254,-0.0012 0.517911,-0.0149 0.929683,-0.171646 1.303593,-0.533774 0.04736,-0.05176 0.09428,-0.103927 0.140864,-0.156394 0.0246,-0.02762 0.04919,-0.05523 0.07455,-0.08369 0.04854,-0.05537 0.09627,-0.111472 0.143056,-0.168338 0.108941,-0.126229 0.17663,-0.194448 0.342567,-0.2272 0.167924,0.03289 0.277417,0.09352 0.421494,0.185442 0.386209,0.244398 0.739907,0.334983 1.192681,0.238061 0.42778,-0.132236 0.676008,-0.388878 0.958822,-0.723318 0.05455,-0.06335 0.109126,-0.126682 0.163701,-0.190011 0.03858,-0.04534 0.07718,-0.09068 0.11693,-0.137392 z"
       fill="#cdcbec"
       id="path15"
       style="fill:none;stroke:#000000;stroke-width:1;stroke-dasharray:none;stroke-opacity:1" /><path
       d="m 31.064547,20.426825 c 0.133169,0.156129 0.141285,0.25327 0.146161,0.456025 0.0026,0.07036 0.0026,0.07036 0.0053,0.142141 -0.04642,0.363692 -0.274325,0.635444 -0.502248,0.910223 -0.02541,0.03166 -0.05083,0.06331 -0.07701,0.09592 -0.273841,0.334299 -0.544938,0.616974 -0.984127,0.693355 -0.730559,0.06968 -1.428227,-0.50423 -1.964416,-0.935436 -0.0296,-0.02362 -0.05919,-0.04723 -0.08968,-0.07157 -0.02919,-0.02401 -0.05838,-0.04803 -0.08845,-0.07276 -0.03956,-0.03241 -0.03956,-0.03241 -0.07992,-0.06548 -0.148901,-0.152062 -0.179348,-0.304063 -0.186278,-0.512229 -0.0024,-0.04334 -0.0048,-0.0867 -0.0073,-0.131363 0.03536,-0.14841 0.08969,-0.223709 0.212414,-0.314739 0.218908,-0.106068 0.464845,-0.108452 0.704021,-0.126853 0.05911,-0.0053 0.118224,-0.01059 0.179127,-0.01604 0.190633,-0.01652 0.381322,-0.03125 0.572145,-0.04535 0.03237,-0.0024 0.06473,-0.0049 0.09807,-0.0074 1.82569,-0.137572 1.82569,-0.137572 2.062203,0.0015 z"
       fill="#cbcaec"
       id="path16"
       style="fill:none;stroke:#000000;stroke-width:1;stroke-dasharray:none;stroke-opacity:1" /></g></svg>
