<?xml version="1.0" encoding="UTF-8" standalone="no"?>
<svg
   width="48"
   height="48"
   viewBox="0 0 48 48"
   version="1.1"
   id="svg1"
   sodipodi:docname="cobalt articon.svg"
   xml:space="preserve"
   inkscape:version="1.4.2 (f4327f4, 2025-05-13)"
   xmlns:inkscape="http://www.inkscape.org/namespaces/inkscape"
   xmlns:sodipodi="http://sodipodi.sourceforge.net/DTD/sodipodi-0.dtd"
   xmlns="http://www.w3.org/2000/svg"
   xmlns:svg="http://www.w3.org/2000/svg"><defs
     id="defs1" /><sodipodi:namedview
     id="namedview1"
     pagecolor="#505050"
     bordercolor="#ffffff"
     borderopacity="1"
     inkscape:showpageshadow="0"
     inkscape:pageopacity="0"
     inkscape:pagecheckerboard="1"
     inkscape:deskcolor="#505050"
     showgrid="false"
     inkscape:zoom="5.97"
     inkscape:cx="13.819095"
     inkscape:cy="24.706868"
     inkscape:window-width="1366"
     inkscape:window-height="705"
     inkscape:window-x="-8"
     inkscape:window-y="-8"
     inkscape:window-maximized="1"
     inkscape:current-layer="svg1" /><path
     d="m 12.107202,18.167043 0.0259,1.47271 4.99219,2.68434 c 2.74575,1.47637 4.98206,2.72655 4.96959,2.7781 -0.0128,0.0516 -2.2589,1.15904 -4.99218,2.46113 l -4.9696,2.36729 -0.0259,1.49465 -0.0257,1.49474 5.69756,-2.81831 c 3.13369,-1.55006 6.25669,-3.08503 6.93985,-3.41109 l 1.24217,-0.59287 -1.8e-4,-0.91969 -1.9e-4,-0.91959 -6.84937,-3.75001 c -3.76716,-2.0625 -6.89006,-3.76443 -6.93976,-3.78206 -0.0562,-0.0199 -0.0805,0.5248 -0.0645,1.44066 m 12.00002,0 0.0259,1.47271 4.99219,2.68434 c 2.74575,1.47637 4.98207,2.72655 4.96959,2.7781 -0.0128,0.0516 -2.2589,1.15904 -4.99218,2.46113 l -4.9696,2.36729 -0.0259,1.49465 -0.0257,1.49474 5.69756,-2.81831 c 3.13369,-1.55006 6.25659,-3.08503 6.93984,-3.41109 l 1.24219,-0.59287 -1.9e-4,-0.91969 -1.9e-4,-0.91959 -6.84937,-3.75001 c -3.76716,-2.0625 -6.89006,-3.76443 -6.93976,-3.78206 -0.0562,-0.0199 -0.0805,0.5248 -0.0645,1.44066"
     stroke="none"
     fill="#ffffff"
     fill-rule="evenodd"
     id="path1"
     style="fill:none;stroke:#000000;stroke-width:1;stroke-dasharray:none;stroke-opacity:1" /></svg>
