<?xml version="1.0" encoding="UTF-8" standalone="no"?>
<!-- Created with Inkscape (http://www.inkscape.org/) -->

<svg
   width="48"
   height="48"
   viewBox="0 0 48 48"
   version="1.1"
   id="svg1"
   xml:space="preserve"
   xmlns="http://www.w3.org/2000/svg"
   xmlns:svg="http://www.w3.org/2000/svg"><defs
     id="defs1" /><g
     id="layer1"><g
       id="g1"
       transform="scale(0.046875)"><path
         d="m 0,0 c 31.68,0 63.36,0 96,0 0.33,45.87 0.66,91.74 1,139 4.29,-4.29 8.58,-8.58 13,-13 2.44299,-2.07929 4.72041,-3.98362 7.3125,-5.8125 0.61698,-0.44175 1.23396,-0.88349 1.86963,-1.33862 9.42181,-6.55446 19.68038,-11.25859 30.44287,-15.16138 0.63148,-0.2305 1.26296,-0.461 1.91357,-0.69849 11.60567,-3.981127 22.97686,-5.487158 35.16504,-5.380123 2.16325,0.01605 4.32461,6.5e-5 6.4878,-0.01904 C 221.29408,97.550044 247.67024,107.72716 269,126 c 0.81082,0.66516 1.62164,1.33031 2.45703,2.01562 C 290.24529,143.99304 301.40919,166.26863 307,190 c 0.17787,0.70561 0.35574,1.41123 0.539,2.13823 2.13443,9.75318 1.7257,19.64492 1.68805,29.57149 -5.6e-4,2.09026 -2.5e-4,4.18053 8.9e-4,6.27079 5.7e-4,5.64797 -0.0112,11.29585 -0.0251,16.94379 -0.0125,5.91234 -0.0137,11.82468 -0.0161,17.73703 -0.006,11.18402 -0.0226,22.36799 -0.0427,33.55199 -0.0266,15.12132 -0.0373,30.24265 -0.049,45.36398 -0.0188,23.8076 -0.0586,47.61511 -0.095,71.4227 -31.35,0 -62.7,0 -95,0 -0.049,-13.31086 -0.098,-26.62172 -0.14844,-40.33594 -0.0354,-8.43099 -0.0713,-16.86198 -0.10937,-25.29297 -0.0604,-13.38296 -0.11879,-26.7659 -0.16407,-40.14892 -0.033,-9.74709 -0.0728,-19.49413 -0.12091,-29.24116 -0.0252,-5.15908 -0.047,-10.31813 -0.0606,-15.47727 -0.0129,-4.86073 -0.035,-9.72133 -0.064,-14.58199 -0.009,-1.77928 -0.0148,-3.55857 -0.0168,-5.33787 -0.025,-18.18623 -2.82858,-33.0656 -15.03845,-47.33779 -12.58243,-12.40977 -28.6021,-16.5379 -45.71191,-16.56298 -15.63669,0.20729 -27.80995,6.09117 -39.17871,16.78173 -10.61721,11.27753 -16.52336,25.64888 -16.544938,41.12178 -0.0049,0.75565 -0.0099,1.5113 -0.01496,2.28984 -0.01534,2.52726 -0.02372,5.0545 -0.03214,7.58179 -0.0096,1.81353 -0.01959,3.62705 -0.03,5.44057 -0.02702,4.92102 -0.04805,9.84205 -0.068,14.7631 -0.02187,5.14365 -0.04926,10.28727 -0.07606,15.4309 -0.04991,9.73921 -0.09485,19.47843 -0.138023,29.21767 -0.05862,13.16134 -0.1249,26.32263 -0.19075,39.48393 C 96.188306,371.52959 96.094995,392.26479 96,413 64.32,413 32.64,413 0,413 0,276.71 0,140.42 0,0 Z"
         fill="#fdfcfb"
         transform="translate(254,303)"
         id="path2"
         style="stroke:#000000;stroke-opacity:1;fill:none;stroke-width:21.33333333;stroke-dasharray:none;fill-opacity:1" /><path
         d="m 0,0 c 45.21,0 90.42,0 137,0 -0.66,8.91 -1.32,17.82 -2,27 -0.23461,3.305156 -0.46922,6.610312 -0.71094,10.015625 -1.82597,25.592133 -4.26858,51.090598 -7.14062,76.585935 -0.13149,1.16749 -0.26297,2.33498 -0.39844,3.53784 -0.23266,2.04624 -0.46895,4.09206 -0.71094,6.13721 -0.80659,6.99226 -1.40104,13.99378 -1.96875,21.00855 -1.07751,13.263 -2.46976,26.48526 -3.89306,39.71484 -0.32176,2.99976 -0.64016,5.99987 -0.9585,9 -0.0928,0.85078 -0.18554,1.70156 -0.28113,2.57812 C 117.75771,206.70521 116.92991,217.84114 116,229 80.36,229 44.72,229 8,229 7.731875,218.605 7.46375,208.21 7.1875,197.5 6.5896401,175.64524 5.8471207,153.8267 4.5625,132 3.1650725,108.16815 2.2405069,84.329558 1.4135857,60.472168 1.3135138,57.591683 1.2121968,54.711243 1.1106262,51.830811 0.94963236,47.251596 0.79242351,42.672267 0.63828278,38.092817 0.5811307,36.401857 0.52316779,34.710923 0.4642868,33.020021 0.38254331,30.658699 0.30468445,28.297276 0.2277832,25.935791 0.20443688,25.28059 0.18109056,24.625388 0.15703678,23.950333 -0.09368804,15.961571 0,8.0048373 0,0 Z"
         fill="#fbbfdc"
         transform="translate(630,303)"
         id="path3"
         style="stroke:#000000;stroke-opacity:1;fill:none;stroke-width:21.33333333;stroke-dasharray:none" /><path
         d="M 0,0 C 1.6435867,1.2254582 3.2685805,2.4762099 4.875,3.75 5.7090234,4.4074219 6.5430469,5.0648437 7.4023437,5.7421875 18.626446,15.184961 28.128733,29.127018 30.875,43.75 c 0.306489,3.878308 0.333396,7.735965 0.3125,11.625 -0.0074,1.604158 -0.0074,1.604158 -0.01489,3.240723 -0.273639,18.464136 -6.698011,33.165481 -19.36011,46.696777 -16.0987338,15.52083 -36.805601,22.15537 -58.839111,21.90527 -18.853178,-0.6252 -36.150285,-7.71448 -50.098389,-20.46777 -0.620039,-0.54012 -1.240078,-1.08023 -1.878906,-1.63672 C -107.97397,96.825505 -113.43601,86.250093 -117.125,74.75 c -0.24621,-0.745078 -0.49242,-1.490156 -0.74609,-2.257813 -4.20803,-15.264967 -1.17433,-32.651201 6.35839,-46.264404 11.31709,-19.3152653 28.896671,-31.0524228 50.329106,-36.751221 1.009336,-0.239765 2.018672,-0.479531 3.058594,-0.726562 1.148555,-0.288105 1.148555,-0.288105 2.320313,-0.582031 C -36.738109,-14.805973 -16.066603,-10.802545 0,0 Z"
         fill="#fbbddc"
         transform="translate(737.125,594.25)"
         id="path4"
         style="stroke:#000000;stroke-opacity:1;fill:none;stroke-width:21.33333333;stroke-dasharray:none" /></g></g></svg>
