<?xml version="1.0" encoding="UTF-8" standalone="no"?>
<svg
   version="1.0"
   width="48pt"
   height="48pt"
   viewBox="0 0 48 48"
   preserveAspectRatio="xMidYMid"
   id="svg2"
   xmlns="http://www.w3.org/2000/svg"
   xmlns:svg="http://www.w3.org/2000/svg">
  <defs
     id="defs2" />
  <g
     transform="matrix(0.1,0,0,-0.1,0.38638354,1080.3921)"
     fill="#000000"
     stroke="none"
     id="g2"
     style="fill:none;fill-opacity:1;stroke:#000000;stroke-width:7.5;stroke-dasharray:none;stroke-opacity:1">
    <path
       d="m 31.723437,10812.944 c -0.369982,-0.324 -4.948501,-2.405 -10.174488,-4.625 -5.225986,-2.22 -15.2617308,-6.428 -22.29137668,-9.434 l -12.81060432,-5.411 -0.04625,-27.842 v -27.841 l 2.173641,0.925 c 1.248687,0.509 2.8211074,1.249 3.6073178,1.573 0.7399627,0.37 4.9485007,2.173 9.249534,4.023 7.5846179,3.238 8.0008469,3.376 11.5619172,3.376 3.19109,0 3.9773,-0.185 5.780959,-1.248 4.301033,-2.59 3.329832,-0.602 19.794003,-39.45 3.56107,-8.37 8.232085,-19.424 10.405726,-24.511 2.17364,-5.087 4.16229,-10.174 4.486024,-11.238 1.156191,-4.394 -0.971201,-10.452 -4.532272,-12.764 -0.924953,-0.648 -10.544469,-4.949 -21.366424,-9.574 -10.821954,-4.624 -24.4187694,-10.452 -30.2922235,-12.949 l -10.6369645,-4.532 -0.138743,-2.59 c -0.09249,-1.388 -0.04625,-2.544 0.0925,-2.544 0.138743,0 4.6710144,1.896 10.0819918,4.255 8.694562,3.746 10.2207351,4.255 13.1343383,4.44 2.8211079,0.139 3.6073179,0.05 5.5959679,-1.018 2.867356,-1.433 5.595968,-4.486 6.937151,-7.769 2.682365,-6.429 19.007792,-44.814 26.314924,-61.926 2.17364,-5.041 2.497374,-6.197 2.497374,-8.787 -0.04625,-5.365 -2.497374,-9.018 -8.000847,-11.793 -1.757411,-0.925 -10.498221,-4.764 -19.424021,-8.556 -8.972048,-3.792 -20.9964424,-8.972 -26.7774012,-11.423 l -10.5444688,-4.486 0.04625,-5.087 v -5.088 l 1.156191,2.359 c 2.266136,4.671 0.971202,3.977 34.870744,18.36 17.111638,7.261 30.893443,13.042 37.784346,15.863 4.671015,1.896 7.399627,2.035 10.868203,0.509 4.301033,-1.896 5.133491,-3.284 12.163137,-19.794 3.514823,-8.232 8.833305,-20.719 11.793156,-27.702 3.006098,-6.984 6.844651,-16.048 8.602061,-20.118 4.48603,-10.591 4.53227,-14.383 0.23124,-19.285 -1.75741,-1.989 -3.65357,-2.96 -19.285275,-9.574 -19.285278,-8.185 -34.454514,-14.66 -44.351515,-18.915 -8.879553,-3.839 -9.388277,-4.023 -12.71811,-4.023 -2.77486,0 -3.931052,0.231 -5.734711,1.156 -3.884804,1.942 -3.931052,1.988 -16.7879039,32.373 -3.1910893,7.492 -7.5383702,17.805 -9.7120107,22.893 -2.1736405,5.087 -5.0409961,11.978 -6.4284264,15.261 l -2.497374,6.013 v -6.383 -6.336 l 6.6596645,-15.631 c 14.1055394,-33.067 18.6840585,-43.843 19.2390305,-45.6 1.294935,-3.978 -0.693715,-10.036 -4.1160424,-12.626 -1.6186684,-1.249 -10.7757071,-5.596 -17.9440959,-8.463 l -3.8385567,-1.573 v -2.451 c 0,-1.341 0.09249,-2.451 0.231238,-2.451 0.138743,0 1.433678,0.601 2.913604,1.341 1.4336774,0.74 8.1395895,3.654 14.8917494,6.521 6.7521596,2.867 20.5802136,8.741 30.7547006,13.042 10.174487,4.347 19.609012,8.278 20.996442,8.741 6.335931,2.22 13.134338,0 15.770456,-5.134 0.462476,-0.925 3.56107,-8.047 6.844655,-15.77 3.329832,-7.724 9.897001,-23.17 14.614263,-34.316 5.457226,-12.672 8.740808,-21.043 8.925798,-22.43 0.32373,-2.775 -0.36998,-5.365 -2.21989,-8.093 -1.803654,-2.729 -3.28358,-3.608 -13.134334,-7.724 -4.301033,-1.85 -8.694562,-3.7 -9.758258,-4.162 -1.017449,-0.509 -3.006099,-1.295 -4.347281,-1.85 -1.341182,-0.555 -3.329832,-1.341 -4.347281,-1.804 -1.063696,-0.462 -8.972048,-3.884 -17.620362,-7.584 -8.648315,-3.7 -17.065391,-7.354 -18.730307,-8.094 l -3.006098,-1.433 h 5.595968 c 5.272234,-0.05 5.827206,0.05 8.555819,1.295 1.618668,0.74 5.36473,2.312 8.278333,3.514 2.913603,1.203 10.821955,4.533 17.574114,7.4 6.75216,2.867 23.401321,9.943 36.998137,15.724 13.59681,5.781 31.7259,13.505 40.23547,17.112 24.18753,10.359 26.73115,11.331 27.19363,10.729 0.23124,-0.323 1.9424,-4.069 3.79231,-8.417 8.55582,-19.979 13.13434,-30.708 16.55666,-38.617 l 3.65357,-8.555 2.40488,-0.139 c 2.35863,-0.139 2.40488,-0.09 2.12739,0.879 -0.18499,0.601 -3.79231,9.064 -7.9546,18.869 -11.88565,27.841 -11.79315,27.656 -12.02439,31.032 -0.27749,3.931 1.01745,7.631 3.46857,9.758 2.1274,1.896 3.32983,2.451 30.15348,13.828 12.07065,5.134 26.8699,11.423 32.83585,13.967 5.96595,2.544 14.19803,6.058 18.26783,7.77 4.06979,1.711 13.64306,5.781 21.27393,9.018 23.54006,9.989 22.33762,9.573 25.52871,9.527 3.51482,0 6.75216,-1.526 8.83331,-4.024 0.78621,-0.925 2.35863,-3.977 3.56107,-6.844 5.17974,-12.117 17.38912,-40.791 22.52261,-52.676 3.32983,-7.816 5.59597,-13.736 5.78096,-15.077 0.41623,-3.792 -1.66492,-8.463 -4.90225,-10.73 -0.92496,-0.693 -12.9031,-6.012 -26.63866,-11.885 -13.73556,-5.874 -26.31492,-11.285 -27.97984,-12.071 l -3.0061,-1.387 65.34796,-0.05 h 65.34796 l 3.79231,1.804 c 2.08114,0.971 8.78705,3.885 14.89174,6.429 6.1047,2.543 16.51042,6.983 23.12384,9.804 6.61342,2.821 14.15179,6.012 16.7879,7.076 l 4.71727,1.942 v 27.61 c 0,17.621 -0.18499,27.656 -0.46248,27.656 -0.64747,0 -5.87345,-2.127 -20.11774,-8.232 -14.10554,-6.012 -38.24682,-16.325 -55.03472,-23.447 -5.82721,-2.498 -16.46417,-6.984 -23.54007,-10.036 -7.07589,-3.006 -13.8743,-5.689 -15.03049,-5.966 -3.88481,-0.879 -8.18584,0.37 -10.77571,3.145 -0.69371,0.74 -3.19109,5.873 -5.9197,12.394 -7.26088,17.112 -16.32543,38.339 -20.67271,48.56 -6.8909,16.048 -6.61342,15.077 -5.41098,19.239 0.55498,1.85 1.29494,3.053 2.86736,4.579 2.17364,2.081 3.65357,2.821 14.89175,7.584 2.68236,1.11 17.66661,7.492 33.29832,14.152 15.63171,6.66 30.33847,12.903 32.60461,13.874 2.31238,0.972 12.57937,5.319 22.84635,9.712 10.22073,4.348 19.47027,8.233 20.48772,8.603 5.04099,1.757 11.05319,-0.324 14.01304,-4.81 1.10994,-1.665 3.05235,-6.105 11.09944,-25.066 2.17364,-5.226 4.20854,-9.666 4.43978,-9.944 0.23124,-0.231 0.41623,54.064 0.41623,140.269 0,77.373 -0.0925,140.686 -0.18499,140.686 -0.13875,0 -8.09335,-3.376 -17.71286,-7.446 -9.61952,-4.116 -19.56277,-8.325 -22.10639,-9.388 -2.54362,-1.11 -7.67711,-3.284 -11.42317,-4.903 -3.74606,-1.572 -7.0759,-2.774 -7.39963,-2.682 -0.55497,0.231 -3.9773,8.047 -23.63256,54.249 -13.7818,32.373 -14.66051,34.454 -14.66051,35.055 0,0.324 0.9712,1.018 2.21989,1.527 1.20244,0.555 7.49212,3.191 13.96679,5.965 6.47468,2.729 14.10554,5.966 16.8804,7.215 l 5.08725,2.22 -5.78096,0.05 h -5.78096 l -13.64306,-5.827 c -7.49213,-3.191 -14.05929,-5.873 -14.52177,-5.873 -0.73996,-0.09 -1.34118,1.017 -3.28359,5.688 l -2.40487,5.781 -25.25123,0.139 -25.29748,0.09 0.87871,-2.173 c 0.50872,-1.249 2.40488,-5.643 4.20854,-9.851 2.77486,-6.244 3.37608,-8.186 3.60731,-10.776 0.36999,-5.226 -1.89615,-9.388 -6.33593,-11.654 -2.17364,-1.064 -15.21548,-6.706 -35.42571,-15.262 -5.82721,-2.451 -17.06539,-7.261 -24.97374,-10.637 -7.86211,-3.376 -17.01915,-7.261 -20.34898,-8.695 -3.28358,-1.387 -13.59681,-5.734 -22.8926,-9.712 -9.29578,-3.931 -21.36642,-9.018 -26.82364,-11.33 -5.45723,-2.313 -15.86296,-6.706 -23.12384,-9.805 -14.79925,-6.336 -16.18668,-6.706 -20.53396,-5.133 -5.27224,1.85 -5.59597,2.358 -16.14044,27.332 -3.93105,9.296 -9.85076,23.217 -13.13434,30.986 -7.44587,17.482 -7.72336,18.314 -7.39963,21.783 0.41623,4.902 3.23734,8.324 8.74081,10.683 1.61867,0.694 8.83331,3.746 16.04794,6.845 7.16839,3.052 13.82806,5.966 14.79926,6.474 1.66491,0.879 1.10994,0.879 -64.006773,0.925 -54.988479,0 -65.810434,-0.09 -66.365406,-0.647 z m 80.470943,-25.76 c 2.40488,-1.064 4.30104,-2.729 5.78096,-5.087 1.15619,-1.804 2.21989,-4.209 11.79316,-26.778 3.60732,-8.509 9.15704,-21.551 12.30188,-28.951 3.14484,-7.353 5.9197,-14.429 6.15094,-15.724 1.15619,-6.243 -2.1274,-11.331 -9.24954,-14.337 -1.89615,-0.786 -11.8394,-5.041 -22.15263,-9.434 -36.859393,-15.678 -42.6866,-18.129 -44.490259,-18.777 -3.699814,-1.295 -8.185838,-0.462 -11.469422,2.127 -2.312384,1.85 -3.37608,3.978 -12.764357,26.13 -3.9773,9.435 -8.74081,20.673 -10.590717,24.974 -9.52702,22.199 -10.266982,24.28 -9.665763,27.98 0.416229,2.636 2.867356,6.475 5.040996,7.862 1.017449,0.694 4.347281,2.266 7.399628,3.561 11.839403,4.995 49.577502,21.043 50.872437,21.644 1.711163,0.74 12.255637,5.134 13.180587,5.457 1.66491,0.602 5.87345,0.278 7.8621,-0.647 z m 232.57954,-13.597 c 4.02354,-1.989 4.62476,-3.006 11.60816,-19.424 2.58987,-6.105 8.50957,-20.025 13.18059,-30.986 10.96069,-25.667 10.45197,-24.372 10.45197,-27.795 0,-4.578 -1.98865,-8.232 -5.96595,-10.775 -2.31238,-1.48 -3.79231,-2.128 -20.21023,-9.065 -18.49907,-7.862 -31.77215,-13.504 -52.72235,-22.43 -35.93444,-15.308 -38.33931,-16.326 -41.06793,-17.204 -3.32983,-1.018 -5.41097,-1.064 -8.69456,-0.09 -3.8848,1.156 -6.10469,3.839 -8.9258,10.637 -1.24869,3.006 -5.04099,11.978 -8.37083,19.84 -20.62646,48.375 -19.65526,45.924 -19.65526,49.023 0,6.151 3.37608,9.573 13.50432,13.597 1.84991,0.74 10.68321,4.44 19.56277,8.278 8.9258,3.792 29.50601,12.579 45.78519,19.517 16.27918,6.891 31.58716,13.411 33.99204,14.429 8.04709,3.515 10.17449,4.116 12.85685,3.838 1.34118,-0.138 3.46858,-0.74 4.67102,-1.387 z m -139.62172,-59.428 c 3.56107,-1.804 5.041,-4.255 10.54447,-17.204 7.30713,-17.297 15.77045,-37.183 19.84025,-46.618 5.45722,-12.626 5.9197,-15.215 3.56107,-19.933 -2.12739,-4.255 -3.83856,-5.272 -19.37777,-11.885 -23.91005,-10.175 -28.85855,-12.302 -34.45452,-14.661 -3.42233,-1.434 -6.84465,-2.914 -7.63086,-3.237 -4.34729,-1.989 -10.9607,-4.625 -12.94935,-5.18 -5.08725,-1.526 -11.09944,0.416 -13.92055,4.579 -0.78621,1.156 -3.09859,6.012 -5.13349,10.821 -11.19194,26.223 -23.7713,55.729 -24.55751,57.764 -2.86736,7.353 -0.69372,14.059 5.59596,17.065 1.29494,0.601 13.73556,5.966 27.60986,11.84 13.8743,5.919 28.76605,12.255 33.15958,14.151 10.63697,4.533 13.04184,4.856 17.71286,2.498 z m 176.89734,-34.039 c 3.69981,-0.832 6.70591,-3.422 8.69456,-7.353 0.64747,-1.249 2.86735,-6.382 4.9485,-11.331 2.08114,-4.948 7.9546,-18.776 13.04184,-30.754 11.51567,-27.009 11.46942,-26.916 11.46942,-30.2 0,-3.237 -1.52617,-6.752 -3.69981,-8.602 -2.58987,-2.174 -3.9773,-2.775 -47.17262,-21.089 -8.50957,-3.607 -18.31408,-7.77 -21.73641,-9.25 -3.42232,-1.479 -13.41182,-5.734 -22.19888,-9.48 -21.8289,-9.25 -35.6107,-15.123 -43.01033,-18.268 -3.42233,-1.48 -11.74691,-4.995 -18.49907,-7.862 -6.75216,-2.868 -19.00779,-8.047 -27.28613,-11.562 -8.27833,-3.515 -15.8167,-6.614 -16.83415,-6.937 -3.93105,-1.249 -10.45197,0.878 -12.53312,4.069 -0.60122,0.972 -4.34728,9.435 -8.32458,18.823 -4.02354,9.435 -8.18583,19.193 -9.24953,21.737 -1.10994,2.543 -4.67101,10.868 -7.8621,18.499 -5.45723,12.857 -5.87346,14.059 -5.82721,16.649 0.0925,3.607 1.84991,7.307 4.43978,9.111 1.01744,0.693 5.50347,2.867 9.94324,4.763 4.43978,1.943 8.50958,3.7 9.0183,3.931 1.38743,0.648 15.30798,6.521 35.61071,15.031 9.94325,4.162 20.7652,8.741 24.04878,10.174 5.22599,2.266 12.34813,5.365 33.99204,14.707 2.68237,1.156 12.25563,5.18 21.27393,9.018 9.0183,3.839 21.64391,9.157 27.97984,11.886 6.38218,2.729 13.73556,5.873 16.41792,6.937 2.68237,1.11 7.35338,3.052 10.40573,4.394 5.87345,2.497 9.71201,3.746 10.8682,3.468 0.36998,-0.09 1.34118,-0.324 2.08115,-0.509 z m -272.81501,-5.595 c 3.65357,-1.249 6.10469,-4.163 8.83331,-10.637 1.29493,-3.007 5.59596,-13.042 9.52702,-22.338 19.65526,-46.109 18.63781,-43.519 18.22158,-47.219 -0.50873,-4.162 -3.51482,-8.232 -7.53837,-10.267 -1.24869,-0.647 -4.9485,-2.312 -8.27833,-3.7 -3.28359,-1.387 -11.74691,-4.948 -18.73031,-7.954 -26.916145,-11.47 -39.726749,-16.834 -41.484161,-17.297 -3.931052,-1.11 -8.509571,-0.139 -11.51567,2.451 -2.127393,1.85 -2.728612,3.145 -23.540064,52.306 -2.451126,5.874 -5.595968,13.273 -6.983398,16.464 -3.37608,7.909 -3.37608,10.73 0.184991,15.863 1.248687,1.85 3.422327,3.053 11.885651,6.66 1.803659,0.74 11.654413,4.949 21.967643,9.342 10.313231,4.394 22.383872,9.527 26.777401,11.423 14.383027,6.197 15.862947,6.567 20.672707,4.903 z m 57.11587,-88.38 c 4.53228,-2.358 4.9485,-3.098 15.9092,-28.997 3.23734,-7.631 8.69456,-20.442 12.11689,-28.442 6.38218,-14.985 7.53837,-18.268 7.53837,-21.506 -0.0463,-3.329 -2.58987,-7.862 -5.50347,-9.665 -0.92495,-0.602 -6.42843,-3.099 -12.30188,-5.596 -5.82721,-2.451 -13.45807,-5.689 -16.8804,-7.169 -3.42233,-1.48 -11.00695,-4.717 -16.8804,-7.168 -5.82721,-2.497 -13.04184,-5.55 -15.95545,-6.798 -10.17448,-4.44 -12.25563,-4.81 -16.83415,-3.099 -4.11604,1.526 -5.41098,3.422 -10.40572,15.262 -2.40488,5.688 -4.71727,11.192 -5.17974,12.209 -3.468578,7.862 -18.776557,44.074 -19.655262,46.386 -1.98865,5.18 -1.063697,10.175 2.543622,13.782 1.479925,1.48 25.20498,11.886 64.09927,28.073 10.35948,4.301 9.24953,3.931 12.30188,3.977 2.0349,0.05 3.19109,-0.231 5.08724,-1.249 z m 258.43198,-1.48 c 3.69982,-1.896 5.36473,-4.254 9.1108,-13.134 1.9424,-4.625 8.64831,-20.349 14.89174,-34.963 12.34813,-28.951 12.48688,-29.368 11.0532,-34.27 -1.34118,-4.532 -3.88481,-6.428 -15.53922,-11.377 -2.68236,-1.11 -12.39437,-5.272 -21.55141,-9.157 -27.8411,-11.839 -49.90124,-21.227 -59.89074,-25.436 -5.22598,-2.22 -17.89784,-7.631 -28.21107,-12.024 -10.31324,-4.394 -24.88125,-10.591 -32.37337,-13.782 -7.49213,-3.191 -21.22768,-9.018 -30.52347,-12.95 -33.11333,-14.059 -53.92478,-22.846 -55.86718,-23.586 -3.51482,-1.387 -8.23209,-0.647 -11.46942,1.758 -1.80366,1.387 -2.0349,1.896 -10.63697,22.198 -7.58462,18.037 -19.794,46.757 -21.69015,51.15 -1.84991,4.209 -1.38743,7.677 1.43367,11.424 2.35863,3.052 5.87346,4.763 37.69185,18.036 5.45723,2.266 15.72421,6.66 22.84635,9.712 7.12214,3.052 20.67271,8.787 30.06099,12.811 9.43452,3.977 19.93274,8.463 23.35507,9.943 3.42233,1.48 10.49822,4.486 15.72421,6.706 11.65441,4.902 41.57666,17.667 47.86634,20.349 8.9258,3.838 38.47806,16.372 45.55395,19.331 3.93106,1.665 9.48078,3.978 12.25564,5.18 2.8211,1.156 6.15094,2.451 7.39962,2.775 2.77486,0.786 6.15094,0.509 8.50957,-0.694 z m -263.0105,-112.335 c 3.93106,-1.989 4.76351,-3.423 11.56192,-19.378 2.54362,-6.012 5.82721,-13.782 7.30713,-17.204 17.29663,-40.421 17.29663,-40.467 15.95545,-45.092 -0.60122,-2.081 -1.29493,-3.191 -3.14484,-5.041 -2.08115,-2.081 -3.32983,-2.821 -9.34203,-5.318 -12.16314,-5.134 -33.80705,-14.337 -46.94139,-19.933 -17.8516,-7.677 -19.97899,-8.278 -23.81755,-6.798 -4.90225,1.942 -6.19718,3.792 -12.02439,17.528 -2.728612,6.428 -9.064543,21.366 -14.105539,33.205 -10.636964,25.02 -10.775707,25.344 -10.821955,28.674 -0.04625,3.237 1.803659,7.261 4.254786,9.157 2.543621,2.035 4.994748,3.145 26.176178,12.117 10.72946,4.532 21.36643,9.064 23.63256,10.082 5.64222,2.451 17.48162,7.446 20.34898,8.509 3.19109,1.203 8.04709,0.972 10.96069,-0.508 z"
       id="path1"
       style="fill:none;fill-opacity:1;stroke:#000000;stroke-width:7.5;stroke-dasharray:none;stroke-opacity:1" />
    <path
       d="m -13.553032,10372.435 -0.04625,-5.596 9.0645434,-21.135 c 7.9545992,-18.546 11.8856512,-27.98 12.8106046,-30.755 0.2312383,-0.694 0.8787057,-0.833 4.116043,-0.833 l 3.838556,0.05 -1.433678,1.248 c -2.17364,1.897 -2.728612,3.006 -10.8219543,22.06 -14.4292727,33.854 -17.2041337,40.236 -17.3428767,40.421 -0.09249,0.09 -0.18499,-2.359 -0.18499,-5.457 z"
       id="path2"
       style="fill:none;fill-opacity:1;stroke:#000000;stroke-width:7.5;stroke-dasharray:none;stroke-opacity:1" />
  </g>
</svg>
