<?xml version="1.0" encoding="UTF-8" standalone="no"?>
<!-- Created with Inkscape (http://www.inkscape.org/) -->

<svg
   width="48"
   height="48"
   viewBox="0 0 48 48"
   version="1.1"
   id="svg1"
   xml:space="preserve"
   xmlns="http://www.w3.org/2000/svg"
   xmlns:svg="http://www.w3.org/2000/svg"><defs
     id="defs1" /><g
     id="layer1"><g
       style="clip-rule:evenodd;fill-rule:evenodd;image-rendering:optimizeQuality;shape-rendering:geometricPrecision;text-rendering:geometricPrecision"
       id="g31"
       transform="matrix(0.13788213,0,0,0.13648221,1.8009771,0.7980243)"><g
         id="g1"
         style="fill:none;stroke:#000000;stroke-width:7.16186;stroke-dasharray:none;stroke-opacity:1"><path
           style="opacity:1;fill:none;stroke:#000000;stroke-width:7.16186;stroke-dasharray:none;stroke-opacity:1"
           fill="#6d4afe"
           d="m 52.5,-0.5 c 4.6667,0 9.3333,0 14,0 14.0677,9.21264 28.401,18.2126 43,27 7.757,-3.0312 15.757,-5.0312 24,-6 8.806,-0.9393 17.639,-1.606 26.5,-2 9.523,0.4101 19.023,1.0768 28.5,2 9.152,1.1628 17.985,3.4962 26.5,7 14.513,-9.4946 29.013,-18.82794 43.5,-28 4.667,0 9.333,0 14,0 6.39,2.72448 10.723,7.39115 13,14 0.049,3.5781 0.715,6.9115 2,10 0,0.3333 0,0.6667 0,1 -0.165,3.6817 10e-4,7.3484 0.5,11 0.232,1.2375 0.732,2.2375 1.5,3 1.931,16.6832 4.097,33.3498 6.5,50 14.046,19.985 22.879,41.985 26.5,66 0,8.667 0,17.333 0,26 -4.295,24.821 -16.962,44.321 -38,58.5 -6.039,4.02 -12.372,7.52 -19,10.5 -0.333,0 -0.667,0 -1,0 -29.24,12.916 -59.906,19.582 -92,20 -9,0 -18,0 -27,0 -30.658,-1.665 -59.991,-8.665 -88,-21 0,-0.667 -0.3333,-1 -1,-1 -22.7609,-9.925 -39.9275,-25.925 -51.5,-48 -2.3271,-6.328 -4.160434,-12.662 -5.5,-19 0,-8.667 0,-17.333 0,-26 0.666667,-3 1.333333,-6 2,-9 1.60161,-3.739 2.60161,-7.739 3,-12 4.97868,-17.957 13.1453,-34.2907 24.5,-49 1.0959,-4.9652 1.9293,-9.9652 2.5,-15 2.2479,-9.4064 3.5813,-19.073 4,-29 -0.3064,-2.8854 0.0269,-5.5521 1,-8 1.389,-4.7688 2.0557,-9.7688 2,-15 1.3138,-8.63599 5.9804,-14.63599 14,-18 z"
           id="path1" /></g><g
         id="g5"
         style="fill:none;stroke:#000000;stroke-width:7.16186;stroke-dasharray:none;stroke-opacity:1"><path
           style="opacity:1;fill:none;stroke:#000000;stroke-width:7.16186;stroke-dasharray:none;stroke-opacity:1"
           fill="#4b2ec7"
           d="m 54.5,31.5 c 7.6857,1.8427 14.6857,5.3427 21,10.5 -8.6956,6.017 -17.0289,12.517 -25,19.5 -1.1548,-2.9459 -1.3214,-5.9459 -0.5,-9 0.6109,-7.2845 2.1109,-14.2845 4.5,-21 z"
           id="path5" /></g><g
         id="g6"><path
           style="opacity:1;fill:none;stroke:#000000;stroke-width:7.16186;stroke-dasharray:none;stroke-opacity:1"
           fill="#4b2ec7"
           d="m 261.5,31.5 c 4.009,-0.8143 6.676,0.6857 8,4.5 0.761,7.0306 1.761,14.0306 3,21 -0.333,1.5 -0.667,3 -1,4.5 -8.049,-6.7171 -16.383,-13.0504 -25,-19 4.852,-3.9202 9.852,-7.5869 15,-11 z"
           id="path6" /></g><g
         id="g9"
         style="fill:none;stroke:#000000;stroke-width:7.16186;stroke-dasharray:none;stroke-opacity:1"><path
           style="opacity:1;fill:none;stroke:#000000;stroke-width:7.16186;stroke-dasharray:none;stroke-opacity:1"
           fill="#382483"
           d="m 120.5,137.96687 c -14.921,-23.291 -36.2544,-33.458 -64,-30.5 -24.7924,7.052 -36.7924,23.552 -36,49.5 -6.0087,-30.108 5.9913,-49.275 36,-57.500008 24.3138,-2.3463 43.814,6.154008 58.5,25.500008 2.403,4.135 4.237,8.468 5.5,13 z"
           id="path9" /></g><g
         id="g10"
         style="fill:none;stroke:#000000;stroke-width:7.16186;stroke-dasharray:none;stroke-opacity:1"><path
           style="opacity:1;fill:none;stroke:#000000;stroke-width:7.16186;stroke-dasharray:none;stroke-opacity:1"
           fill="#382382"
           d="m 272.5,155.98937 c 0.389,-25.435 -11.611,-41.602 -36,-48.5 -27.205,-3.06 -48.205,6.773 -63,29.5 5.232,-15.738 15.566,-26.905 31,-33.5 24.163,-9.169396 44.997,-4.335996 62.5,14.5 8.167,11.95 10,24.617 5.5,38 z"
           id="path10" /></g><g
         id="g11"><path
           style="opacity:1;fill:none;stroke:#000000;stroke-width:7.16186;stroke-dasharray:none;stroke-opacity:1"
           fill="#fcfbfd"
           d="m 120.5,136.5 c 0,0.667 0,1.333 0,2 1.702,7.546 2.368,15.213 2,23 -4.956,19.455 -17.289,31.288 -37,35.5 -26.6465,3.092 -46.8131,-6.741 -60.5,-29.5 -1.6305,-4.071 -3.1305,-8.071 -4.5,-12 -0.7924,-25.948 11.2076,-42.448 36,-49.5 27.7456,-2.958 49.079,7.209 64,30.5 z"
           id="path11" /></g><g
         id="g12"><path
           style="opacity:1;fill:none;stroke:#000000;stroke-width:7.16186;stroke-dasharray:none;stroke-opacity:1"
           fill="#fcfbfd"
           d="m 272.5,154.5 c -4.593,17.77 -15.26,30.603 -32,38.5 -4.129,1.949 -8.463,3.116 -13,3.5 -9.449,0.44 -18.782,-0.227 -28,-2 -18.513,-7.332 -28.513,-20.999 -30,-41 0.076,-6.302 1.409,-12.302 4,-18 14.795,-22.727 35.795,-32.56 63,-29.5 24.389,6.898 36.389,23.065 36,48.5 z"
           id="path12" /></g><g
         id="g13"><path
           style="opacity:1;fill:none;fill-opacity:1;stroke:#000000;stroke-width:7.16186;stroke-dasharray:none;stroke-opacity:1"
           fill="#4129a3"
           d="m 79.5,123.5 c -1.4433,2.121 -2.4433,4.454 -3,7 -0.0241,4.473 2.1426,6.807 6.5,7 1.8784,-0.196 3.7117,-0.529 5.5,-1 0,0.333 0,0.667 0,1 0.8197,6.297 1.153,12.631 1,19 -0.7513,9.004 -4.7513,16.171 -12,21.5 -6.5112,1.874 -11.6779,0.041 -15.5,-5.5 -8.3193,-14.439 -8.6527,-29.105 -1,-44 4.587,-7.24 10.7537,-8.906 18.5,-5 z"
           id="path13" /></g><g
         id="g14"><path
           style="opacity:1;fill:none;stroke:#000000;stroke-width:7.16186;stroke-dasharray:none;stroke-opacity:1"
           fill="#4128a3"
           d="m 232.5,123.5 c -3.971,3.355 -4.804,7.355 -2.5,12 3.303,2.244 6.803,2.577 10.5,1 0.659,2.955 0.992,5.955 1,9 0.299,6.783 -0.367,13.449 -2,20 -2.792,9.636 -9.126,13.802 -19,12.5 -6.533,-4.879 -10.699,-11.379 -12.5,-19.5 -2.243,-12.02 0.09,-23.02 7,-33 5.372,-4.484 11.206,-5.15 17.5,-2 z"
           id="path14" /></g><g
         id="g15"><path
           style="opacity:1;fill:#000000;fill-opacity:1;stroke:#000000;stroke-width:7.16186;stroke-dasharray:none;stroke-opacity:1"
           fill="#bcb4dd"
           d="m 79.5,123.49955 c 4.207,3.38602 7.207,7.71902 9,13.00002 -1.7883,0.471 -3.6216,0.804 -5.5,1 -4.3574,-0.193 -6.5241,-2.527 -6.5,-7 0.5567,-2.546 1.5567,-4.87901 3,-7.00002 z"
           id="path15" /></g><g
         id="g16"><path
           style="opacity:1;fill:#000000;fill-opacity:1;stroke:#000000;stroke-width:7.16186;stroke-dasharray:none;stroke-opacity:1"
           fill="#beb6de"
           d="m 232.5,123.5 c 3.917,3.488 6.583,7.821 8,13 -3.697,1.577 -7.197,1.244 -10.5,-1 -2.304,-4.645 -1.471,-8.645 2.5,-12 z"
           id="path16" /></g><g
         id="g21"><path
           style="opacity:1;fill:none;stroke:#000000;stroke-width:7.16186;stroke-dasharray:none;stroke-opacity:1"
           fill="#f5f2ff"
           d="m 128.5,189.5 c 4.871,-0.716 9.037,0.617 12.5,4 3.804,-3.464 8.304,-4.797 13.5,-4 0.398,4.259 -1.602,6.092 -6,5.5 -3.555,2.21 -5.388,5.377 -5.5,9.5 -1.333,1.333 -2.667,1.333 -4,0 -0.942,-6.319 -4.609,-9.985 -11,-11 -0.579,-1.428 -0.412,-2.762 0.5,-4 z"
           id="path21" /></g><g
         id="g23"><path
           style="opacity:1;fill:none;fill-opacity:1;stroke:#000000;stroke-width:7.16186;stroke-dasharray:none;stroke-opacity:1"
           fill="#4028a2"
           d="m 57.5,248.5 c 28.009,12.335 57.342,19.335 88,21 -1,0.667 -2,1.333 -3,2 -4.899,1.452 -9.233,3.952 -13,7.5 -2.953,2.752 -5.286,5.918 -7,9.5 -21.667,0 -43.3333,0 -65,0 0,-13.333 0,-26.667 0,-40 z"
           id="path23" /></g><g
         id="g24"><path
           style="opacity:1;fill:none;stroke:#000000;stroke-width:7.16186;stroke-dasharray:none;stroke-opacity:1"
           fill="#4128a2"
           d="m 264.5,249.5 c 0,13 0,26 0,39 -22.333,0 -44.667,0 -67,0 -5.573,-9.916 -13.906,-15.916 -25,-18 0,-0.333 0,-0.667 0,-1 32.094,-0.418 62.76,-7.084 92,-20 z"
           id="path24" /></g><g
         id="g26"><path
           style="opacity:1;fill:none;stroke:#000000;stroke-width:7.16186;stroke-dasharray:none;stroke-opacity:1"
           fill="#fc9219"
           d="m 162.5,270.5 c 3.333,0 6.667,0 10,0 11.094,2.084 19.427,8.084 25,18 0,0.667 0.333,1 1,1 7.4,21.682 1.066,37.849 -19,48.5 -2.24,0.977 -4.573,1.477 -7,1.5 -3.682,0.165 -7.348,-10e-4 -11,-0.5 20.676,-7.167 29.176,-21.667 25.5,-43.5 -4.36,-12.193 -12.527,-20.526 -24.5,-25 z"
           id="path26" /></g><g
         id="g27"><path
           style="opacity:1;fill:none;stroke:#000000;stroke-width:7.16186;stroke-dasharray:none;stroke-opacity:1"
           fill="#feab30"
           d="m 162.5,270.5 c 11.973,4.474 20.14,12.807 24.5,25 3.676,21.833 -4.824,36.333 -25.5,43.5 3.652,0.499 7.318,0.665 11,0.5 0,0.333 0,0.667 0,1 -8.333,0 -16.667,0 -25,0 -25.324,-8.312 -33.99,-25.312 -26,-51 0.667,0 1,-0.333 1,-1 1.714,-3.582 4.047,-6.748 7,-9.5 3.767,-3.548 8.101,-6.048 13,-7.5 6.631,-0.831 13.298,-1.164 20,-1 z"
           id="path27" /></g><g
         id="g30"><path
           style="opacity:1;fill:none;stroke:#000000;stroke-width:7.16186;stroke-dasharray:none;stroke-opacity:1"
           fill="#3a257f"
           d="m 148.5,289.5 c 7.148,-1.795 12.315,0.539 15.5,7 0.964,4.744 -0.369,8.744 -4,12 -0.333,3.333 -0.667,6.667 -1,10 -3.171,4.914 -6.837,5.247 -11,1 -0.333,-3.667 -0.667,-7.333 -1,-11 -6.232,-6.875 -5.732,-13.208 1.5,-19 z"
           id="path30" /></g></g></g></svg>
