<?xml version="1.0" encoding="UTF-8" standalone="no"?>
<!-- Created with Inkscape (http://www.inkscape.org/) -->

<svg
   width="48"
   height="48"
   viewBox="0 0 48 48"
   version="1.1"
   id="svg1"
   xml:space="preserve"
   xmlns="http://www.w3.org/2000/svg"
   xmlns:svg="http://www.w3.org/2000/svg"><defs
     id="defs1" /><g
     id="layer1"><g
       style="isolation:isolate"
       id="g1"
       transform="matrix(0.16,0,0,0.16,108.8,174.4)"><rect
         style="display:inline;opacity:1;fill:none;fill-opacity:1;stroke:#000000;stroke-width:0.997773;stroke-linecap:round;stroke-dasharray:none;stroke-opacity:1"
         id="rect1"
         width="46.912933"
         height="27.866247"
         x="0.54353333"
         y="10.066876"
         rx="7.6659999"
         ry="7.3010001"
         transform="matrix(6.25,0,0,6.25,-680,-1090)" /><g
         id="g9"><path
           fill="#ffcc02"
           d="m -430,-910 v 0 c 5.519,0 10,4.481 10,10 v 0 c 0,5.519 -4.481,10 -10,10 v 0 c -5.519,0 -10,-4.481 -10,-10 v 0 c 0,-5.519 4.481,-10 10,-10 z"
           id="path1"
           style="fill:none;stroke:#000000;stroke-width:6.25;stroke-dasharray:none;stroke-opacity:1" /><path
           fill="#ffcc02"
           d="m -570,-910 h 60 c 5.519,0 10,4.481 10,10 v 0 c 0,5.519 -4.481,10 -10,10 h -60 c -5.519,0 -10,-4.481 -10,-10 v 0 c 0,-5.519 4.481,-10 10,-10 z"
           id="path2"
           style="fill:none;stroke:#000000;stroke-width:6.25;stroke-dasharray:none;stroke-opacity:1" /><path
           fill="#ffcc02"
           d="m -590,-970 v 0 c 5.519,0 10,4.481 10,10 v 20 c 0,5.519 -4.481,10 -10,10 v 0 c -5.519,0 -10,-4.481 -10,-10 v -20 c 0,-5.519 4.481,-10 10,-10 z"
           id="path3"
           style="fill:none" /><path
           fill="#ffcc02"
           d="M -639.991,-960.515 C -639.72,-976.836 -626.385,-990 -610,-990 v 0 c 7.68,0 14.69,2.892 20,7.645 5.31,-4.753 12.32,-7.645 20,-7.645 v 0 c 16.385,0 29.72,13.164 29.991,29.485 0.008,0.17 0.009,0.343 0.009,0.515 v 0 20 c 0,5.519 -4.481,10 -10,10 v 0 c -5.519,0 -10,-4.481 -10,-10 v -20 0 c 0,-5.519 -4.481,-10 -10,-10 -5.519,0 -10,4.481 -10,10 v 0 0 20 c 0,5.519 -4.481,10 -10,10 v 0 c -5.519,0 -10,-4.481 -10,-10 v -20 0 0 0 0 0 0 0 c 0,-5.519 -4.481,-10 -10,-10 -5.519,0 -10,4.481 -10,10 v 0 20 c 0,5.519 -4.481,10 -10,10 v 0 c -5.519,0 -10,-4.481 -10,-10 v -20 0 c 0,-0.172 0.004,-0.344 0.009,-0.515 z"
           id="path4"
           style="fill:none;fill-opacity:1;stroke:#000000;stroke-width:6.25;stroke-dasharray:none;stroke-opacity:1" /><path
           fill="#ffcc02"
           d="m -460,-930 v 30 c 0,5.519 -4.481,10 -10,10 v 0 c -5.519,0 -10,-4.481 -10,-10 v -30 h -28.82 c -6.17,0 -11.18,-4.481 -11.18,-10 v 0 c 0,-5.519 5.01,-10 11.18,-10 h 77.64 c 6.17,0 11.18,4.481 11.18,10 v 0 c 0,5.519 -5.01,10 -11.18,10 z"
           id="path5"
           style="fill:none;stroke:#000000;stroke-width:6.25;stroke-dasharray:none;stroke-opacity:1" /><path
           fill="#ffcc02"
           d="m -470,-990 h 40 c 5.519,0 10,4.481 10,10 v 0 c 0,5.519 -4.481,10 -10,10 h -40 c -5.519,0 -10,-4.481 -10,-10 v 0 c 0,-5.519 4.481,-10 10,-10 z"
           id="path6"
           style="fill:none;stroke:#000000;stroke-width:6.25;stroke-dasharray:none;stroke-opacity:1" /><path
           fill="#ffcc02"
           d="m -630,-910 h 20 c 5.519,0 10,4.481 10,10 v 0 c 0,5.519 -4.481,10 -10,10 h -20 c -5.519,0 -10,-4.481 -10,-10 v 0 c 0,-5.519 4.481,-10 10,-10 z"
           id="path7"
           style="fill:none;stroke:#000000;stroke-width:6.25;stroke-dasharray:none;stroke-opacity:1" /><path
           fill="#ffcc02"
           d="m -515,-990 h 5 c 5.519,0 10,4.481 10,10 v 0 c 0,5.519 -4.481,10 -10,10 h -5 c -5.519,0 -10,-4.481 -10,-10 v 0 c 0,-5.519 4.481,-10 10,-10 z"
           id="path8"
           style="fill:none;stroke:#000000;stroke-width:6.25;stroke-dasharray:none;stroke-opacity:1" /></g></g></g></svg>
