<?xml version="1.0" encoding="UTF-8" standalone="no"?>
<svg
   xml:space="preserve"
   viewBox="62.2 0 47.999998 48"
   version="1.1"
   id="svg1"
   width="48"
   height="48"
   xmlns="http://www.w3.org/2000/svg"
   xmlns:svg="http://www.w3.org/2000/svg"><defs
     id="defs1" /><path
     d="m 77.624516,1.0551787 -5.045947,6.8627624 v 3.8840699 l -4.398793,2.018992 -0.03752,-0.01811 v 25.314358 l 17.135593,7.813409 1.041077,0.479849 1.050458,-0.479849 17.135596,-7.813409 V 13.802896 l -0.0281,0.01811 -4.3988,-2.018992 V 7.9179411 L 99.927987,7.7097042 95.022724,1.0551787 89.976775,7.9179411 v 0.00905 L 86.300172,2.9293104 82.651708,7.8907798 82.5204,7.7097042 Z m 0.891015,3.9836615 1.950849,2.6527565 h -5.693105 l 1.932092,-2.625595 z m 17.398206,0 1.950851,2.6527565 h -5.693107 l 1.932092,-2.625595 z m -8.722551,1.8831855 1.95085,2.6527564 h -5.693105 l 1.932091,-2.625595 z m -12.95252,2.1185836 h 2.701177 v 8.7731087 l -2.701177,-1.231314 z m 4.089283,0 h 2.68242 V 19.669741 l -2.68242,-1.22226 z m 13.308924,0 h 2.701176 v 9.3978187 l -2.701176,1.231313 z m 4.079903,0 h 2.68242 v 7.5417947 l -2.68242,1.22226 z M 82.904943,10.914742 h 2.701178 v 10.855476 l -2.701178,-1.231313 z m 4.089282,0 h 2.682419 v 9.642271 l -2.682419,1.222258 z m 13.074445,2.879101 2.37291,0.941592 -2.37291,1.086454 z m -27.499481,0.0091 v 2.018992 l -2.37291,-1.086453 z m -2.335393,3.186929 15.034678,6.853709 v 20.85084 L 70.233796,37.840672 Z m 32.170264,0 V 37.840713 L 87.369388,44.69438 V 23.852588 Z"
     id="path1"
     style="fill:none;stroke:#000000;stroke-width:0.983052;stroke-dasharray:none;stroke-opacity:1" /></svg>
