<?xml version="1.0" encoding="UTF-8" standalone="no"?>
<!-- Created with Inkscape (http://www.inkscape.org/) -->

<svg
   width="48"
   height="48"
   viewBox="0 0 48 48"
   version="1.1"
   id="svg1"
   xml:space="preserve"
   xmlns="http://www.w3.org/2000/svg"
   xmlns:svg="http://www.w3.org/2000/svg"><defs
     id="defs1"><clipPath
       id="clip0"><rect
         width="150"
         height="142.308"
         fill="white"
         transform="translate(0.777344)"
         id="rect1" /></clipPath></defs><g
     id="layer1"><g
       transform="matrix(8.5318456e-4,-2.9225723e-4,-2.9225723e-4,-8.5318456e-4,9.5614376,52.820826)"
       fill="#000000"
       stroke="none"
       id="g3"><path
         d="m 38190,44794 c -19,-2 -91,-9 -160,-14 -1086,-93 -2185,-561 -3015,-1284 -74,-65 -23476,-23454 -24589,-24576 -151,-152 -200,-208 -224,-255 -16,-33 -527,-1579 -1135,-3435 C 8458,13374 7836,11477 7685,11015 6389,7067 6407,7122 6402,7024 c -8,-174 54,-332 177,-454 64,-63 163,-124 241,-149 72,-22 178,-31 251,-21 63,9 870,271 3129,1015 206,68 528,174 715,235 187,61 576,189 865,285 289,95 683,225 875,289 720,236 2524,829 3825,1256 2079,682 2131,700 2195,733 53,26 1599,1569 12391,12361 7447,7447 12371,12379 12432,12451 224,265 436,563 592,835 457,795 709,1742 710,2670 1,1283 -454,2522 -1285,3500 -146,171 -1364,1385 -1520,1514 -240,200 -448,348 -690,493 -729,437 -1512,685 -2379,753 -116,9 -650,12 -736,4 z m 867,-1223 c 792,-104 1509,-411 2123,-909 59,-48 389,-369 751,-731 704,-704 768,-776 974,-1086 172,-260 285,-475 396,-751 351,-878 393,-1872 117,-2779 -162,-533 -424,-1018 -786,-1455 -53,-65 -447,-467 -898,-920 l -804,-805 -3400,3400 -3400,3400 718,718 c 394,396 772,770 839,832 702,651 1551,1023 2533,1109 25,2 187,2 360,1 253,-2 347,-7 477,-24 z M 36690,36685 40085,33290 29412,22617 18740,11945 l -3400,3400 -3400,3400 10667,10667 c 5868,5868 10673,10668 10678,10668 6,0 1538,-1528 3405,-3395 z M 17800,11180 c 0,-3 -1270,-423 -2822,-933 -1553,-510 -2874,-944 -2936,-964 l -112,-38 -1340,1340 c -737,737 -1340,1344 -1340,1348 0,5 423,1301 940,2880 518,1580 950,2901 962,2936 l 20,64 3314,-3314 c 1823,-1823 3314,-3316 3314,-3319 z M 9740,9735 c 497,-497 902,-906 900,-909 -7,-6 -2692,-887 -2695,-884 -4,5 880,2698 885,2698 3,0 412,-407 910,-905 z"
         id="path1" /><path
         d="m 32310,35744 c -30,-8 -89,-30 -130,-50 -74,-36 -163,-124 -7928,-7888 -4644,-4643 -7868,-7873 -7889,-7906 -20,-30 -50,-93 -67,-140 -25,-72 -29,-100 -30,-185 0,-170 57,-308 179,-430 192,-192 482,-228 725,-88 55,31 1246,1217 7911,7882 6278,6278 7854,7858 7883,7908 59,99 78,164 83,288 4,84 1,126 -12,175 -55,211 -226,381 -440,435 -74,19 -212,18 -285,-1 z"
         id="path2" /><path
         d="m 35030,33044 c -36,-7 -99,-30 -140,-50 -74,-36 -182,-143 -7947,-7908 -7600,-7600 -7873,-7873 -7907,-7943 -201,-406 83,-874 529,-873 102,0 186,20 278,66 69,34 344,308 7934,7896 6221,6222 7869,7874 7897,7922 209,352 2,815 -399,891 -93,18 -159,18 -245,-1 z"
         id="path3" /></g></g></svg>
